<?xml version="1.0" encoding="iso-8859-1"?>
<!-- Generator: Adobe Illustrator 19.2.0, SVG Export Plug-In . SVG Version: 6.00 Build 0)  -->
<svg version="1.1"  xmlns="http://www.w3.org/2000/svg" xmlns:xlink="http://www.w3.org/1999/xlink" x="0px" y="0px"
	 viewBox="0 0 40 40" enable-background="new 0 0 40 40" xml:space="preserve">
<g>
	<polygon fill="#BAE0BD" points="19.3,38.3 19.1,38.2 2.5,28.7 2.5,10.3 19.5,1.6 36.5,10.3 36.5,28.7 19.6,38.3 19.6,38.4 
		19.5,38.4 	"/>
	<g>
		<path fill="#5E9C76" d="M19.5,2.1L36,10.6v17.8l-16.3,9.3l-0.1,0.1l-0.2-0.1L3,28.4V10.6L19.5,2.1 M19.5,1L2,10v19l16.9,9.6l0,0
			l0.6,0.3l0.6-0.3l0,0L37,29V10L19.5,1L19.5,1z"/>
	</g>
</g>
<g>
	<g>
		<g>
			<polygon fill="#72B289" points="2.5,28.7 2.5,10.9 19.4,20.5 19.6,20.5 20,38.1 19.5,38.4 			"/>
			<path fill="#5E9C76" d="M19.5,39L2,29V10l17.6,10h0.5l0.4,18.4L19.5,39z M3,28.4l16.5,9.4l0,0l-0.4-16.9L3,11.8V28.4z"/>
		</g>
	</g>
</g>
<g>
	<g>
		<polygon fill="#5E9C76" points="19.5,20 19,20 19,38.6 19.5,39 37,29 37,10 		"/>
	</g>
</g>
<ellipse fill="#FFFFFF" cx="19.5" cy="10" rx="3.8" ry="2"/>
<path fill="#FFFFFF" d="M26.6,21.1c0.5,0.3,0.5,1.4-0.1,2.4s-1.6,1.6-2.1,1.3c-0.5-0.3-0.5-1.4,0.1-2.4C25.1,21.3,26,20.8,26.6,21.1
	z"/>
<path fill="#FFFFFF" d="M14.4,21.1c-0.5,0.3-0.5,1.4,0.1,2.4s1.6,1.6,2.1,1.3c0.5-0.3,0.5-1.4-0.1-2.4C15.9,21.3,15,20.8,14.4,21.1z
	"/>
<path fill="#FFFFFF" d="M9.4,23.1c-0.5,0.3-0.5,1.4,0.1,2.4s1.6,1.6,2.1,1.3c0.5-0.3,0.5-1.4-0.1-2.4C10.9,23.3,10,22.8,9.4,23.1z"
	/>
<path fill="#FFFFFF" d="M4.4,25.1c-0.5,0.3-0.5,1.4,0.1,2.4s1.6,1.6,2.1,1.3c0.5-0.3,0.5-1.4-0.1-2.4C5.9,25.3,5,24.8,4.4,25.1z"/>
<path fill="#FFFFFF" d="M33.6,25.1c0.5,0.3,0.5,1.4-0.1,2.4s-1.6,1.6-2.1,1.3c-0.5-0.3-0.5-1.4,0.1-2.4C32.1,25.3,33,24.8,33.6,25.1
	z"/>
</svg>
